/* XPM */
static char * arrow_xpm[] = {
"16 16 2 1",
" 	c #000000",
".	c #C9C9C9",
"                ",
" .............. ",
" .............. ",
" .............. ",
" ......  ...... ",
" .....    ..... ",
" ....      .... ",
" ...        ... ",
" ..          .. ",
" ..          .. ",
" ..          .. ",
" .............. ",
" .............. ",
" .............. ",
" .............. ",
"                "};
