/* XPM */
static char * atrfartool_xpm[] = {
"22 22 4 1",
" 	c None",
".	c #FF0000",
"+	c #FFFFFF",
"@	c #000000",
"                      ",
"          ..          ",
"        ++..          ",
"       ++             ",
"     ..+              ",
"     ..               ",
"     +      @@        ",
"    ++      @@@       ",
"    +       @@@@      ",
"   ..    @@@@@@@@     ",
"   ..    @@@@@@@@     ",
"    +       @@@@      ",
"    ++      @@@       ",
"     +      @@        ",
"     ..               ",
"     ..+              ",
"       ++             ",
"        ++..          ",
"          ..          ",
"                      ",
"                      ",
"                      "};
