/* XPM */
static char * bgmovetool_xpm[] = {
"22 22 10 1",
" 	c None",
".	c #000000",
"+	c #15BBD8",
"@	c #0C0C0C",
"#	c #171717",
"$	c #319609",
"%	c #3BBF07",
"&	c #0E0E0E",
"*	c #191919",
"=	c #020202",
"        ...           ",
"       ....           ",
"      .......         ",
"     ........         ",
"        ...           ",
"        ...           ",
"  .  .................",
" ..  .++...++++...+++@",
"...................++#",
"...................++#",
"...................++#",
" ..  .++...++++...+++#",
"  .  .++...++++..$+++#",
"     .++...+++$$%%$++#",
"     .++...+$$%%%%%$$#",
"     ........%%%%%%%%#",
"     ........%%%%%%%%#",
"     .%....%%%%%%%%%%#",
"     .%%...%%%%%%%%%%#",
"     .%%%%%%%%%%%%%%%#",
"     .%%%%%%%%%%%%%%%#",
"     .&**************="};
