/* XPM */
static char * crosshairrow_xpm[] = {
"16 16 3 1",
" 	c #000000",
".	c #C9C9C9",
"+	c #686868",
"                ",
" .............. ",
" ......  ...... ",
" .....    ..... ",
" ....+    +.... ",
" ...+..  ..+... ",
" ..  ..  ..  .. ",
" .            . ",
" .            . ",
" ..  ..  ..  .. ",
" ...+..  ..+... ",
" ....+    +.... ",
" .....    ..... ",
" ......  ...... ",
" .............. ",
"                "};
