/* XPM */
static const char * cubetool_xpm[] = {
"22 22 17 1",
" 	c None",
".	c #FF0000",
"+	c #FF7E7E",
"@	c #FF8B8B",
"#	c #FFFFFF",
"$	c #FF8C8C",
"%	c #FF5555",
"&	c #FF4E4E",
"*	c #FF4242",
"=	c #FFFEFE",
"-	c #FFFDFD",
";	c #FF8585",
">	c #FF8181",
",	c #FF7373",
"'	c #FF6363",
")	c #FF7272",
"!	c #FF0202",
"                      ",
"                      ",
"                      ",
" ..............       ",
" .+@######$%&*=..     ",
" .##..-*;>%######,'   ",
" .###,..............  ",
" .###,.)###########.  ",
" .##!#.#.##########.  ",
" .##!#.##.#########.  ",
" .##!#.###.########.  ",
" .#!##.####.#######.  ",
" .#!##.#####.######.  ",
" .#!##.######.#####.  ",
" .,###.#######.####.  ",
" .,###.########.###.  ",
" .,###.#########.##.  ",
"  ..##.##########.#.  ",
"    .).###########).  ",
"      ..............  ",
"                      ",
"                      "};
