/* XPM */
static const char * extrudetool_xpm[] = {
"22 22 6 1",
" 	c None",
".	c #FFFFFF",
"+	c #D2D2D2",
"@	c #7E7E7E",
"#	c #FF0000",
"$	c #FF7272",
"                      ",
"                      ",
"                      ",
" ..............       ",
" .++@@@@@@++++@..     ",
" .@@++@++++@@@@@@++   ",
" .@@@+##############  ",
" .@@@+#$...........#  ",
" .@@+@#.#..........#  ",
" .@@+@#..#.........#  ",
" .@@+@#...#........#  ",
" .@+@@#....#.......#  ",
" .@+@@#.....#......#  ",
" .@+@@#......#.....#  ",
" .+@@@#.......#....#  ",
" .+@@@#........#...#  ",
" .+@@@#.........#..#  ",
"  ..@@#..........#.#  ",
"    ++#...........$#  ",
"      ##############  ",
"                      ",
"                      "};
