/* XPM */
static const char * jointtool_xpm[] = {
"22 22 3 1",
" 	c None",
".	c #FF0000",
"+	c #FFFFFF",
"                      ",
"                      ",
"                      ",
"                      ",
"                      ",
"                      ",
"    ...        ...    ",
"   .+++.      .+++.   ",
"   .++++......++++.   ",
"   .++++++++++++++.   ",
"    .++++++++++++.    ",
"   .++++++++++++++.   ",
"   .++++......++++.   ",
"   .+++.      .+++.   ",
"    ...        ...    ",
"                      ",
"                      ",
"                      ",
"                      ",
"                      ",
"                      ",
"                      "};
