/* XPM */
static char * mm3dlogo_16x16_xpm[] = {
"16 16 123 2",
"  	c None",
". 	c #0000F9",
"+ 	c #0000E7",
"@ 	c #00005E",
"# 	c #9E0000",
"$ 	c #B20000",
"% 	c #C00000",
"& 	c #C10000",
"* 	c #B80000",
"= 	c #A90000",
"- 	c #0000D5",
"; 	c #2D003E",
"> 	c #A50000",
", 	c #C60000",
"' 	c #D80000",
") 	c #E10000",
"! 	c #E30000",
"~ 	c #DE0000",
"{ 	c #D00000",
"] 	c #B40000",
"^ 	c #0000BF",
"/ 	c #04005B",
"( 	c #82000F",
"_ 	c #C40000",
": 	c #DB0000",
"< 	c #E90000",
"[ 	c #F00000",
"} 	c #F20000",
"| 	c #EE0000",
"1 	c #E40000",
"2 	c #D10000",
"3 	c #AE0000",
"4 	c #0000A9",
"5 	c #2B003E",
"6 	c #E50000",
"7 	c #F10000",
"8 	c #F70000",
"9 	c #F90000",
"0 	c #F60000",
"a 	c #DF0000",
"b 	c #C20000",
"c 	c #0000FA",
"d 	c #000096",
"e 	c #530024",
"f 	c #BA0000",
"g 	c #EA0000",
"h 	c #F50000",
"i 	c #FA0000",
"j 	c #FC0000",
"k 	c #E20000",
"l 	c #C90000",
"m 	c #9D0000",
"n 	c #00007E",
"o 	c #570022",
"p 	c #B90000",
"q 	c #D60000",
"r 	c #E80000",
"s 	c #F30000",
"t 	c #F80000",
"u 	c #00006A",
"v 	c #4A0028",
"w 	c #B10000",
"x 	c #ED0000",
"y 	c #F40000",
"z 	c #DA0000",
"A 	c #BE0000",
"B 	c #900000",
"C 	c #0000F2",
"D 	c #00005F",
"E 	c #1C0046",
"F 	c #D70000",
"G 	c #E70000",
"H 	c #DD0000",
"I 	c #CC0000",
"J 	c #AB0000",
"K 	c #0000DC",
"L 	c #01005D",
"M 	c #5E0025",
"N 	c #AA0000",
"O 	c #C30000",
"P 	c #D20000",
"Q 	c #CA0000",
"R 	c #B30000",
"S 	c #8C0000",
"T 	c #0000C9",
"U 	c #0900C7",
"V 	c #650031",
"W 	c #A00000",
"X 	c #BD0000",
"Y 	c #A70000",
"Z 	c #890000",
"` 	c #0000B2",
" .	c #000060",
"..	c #0400EF",
"+.	c #350081",
"@.	c #6E0024",
"#.	c #8A0000",
"$.	c #6F0028",
"%.	c #360089",
"&.	c #0000BB",
"*.	c #00006E",
"=.	c #00004B",
"-.	c #00003D",
";.	c #00004E",
">.	c #00006D",
",.	c #00008B",
"'.	c #0000AA",
").	c #0000C8",
"!.	c #0000E8",
"~.	c #0000F7",
"{.	c #0000DD",
"].	c #0000BE",
"^.	c #00009E",
"/.	c #00007B",
"(.	c #00005B",
"_.	c #00003F",
":.	c #000039",
"<.	c #000048",
"[.	c #00006B",
"}.	c #0000F6",
"|.	c #0000DB",
"1.	c #0000BA",
"2.	c #000069",
"    .                           ",
"    + @       # $ % & * =       ",
"    - @ @ ; > , ' ) ! ~ { ]     ",
"    ^ @ / ( _ : < [ } | 1 2 3   ",
"    4 @ 5 3 2 6 7 8 9 0 | a b   ",
"  c d @ e f ' g h i j 9 7 k l m ",
"  c n @ o p q r s t i 8 [ k l m ",
"  c u @ v w 2 1 x y y } < z A B ",
"  C D @ E # b F k < g G H I J   ",
"  K @ @ L M N O P ' : q Q R S   ",
"  T @ @ @ U V W R X A * Y Z     ",
"  ` @ @  .C ..+.@.Z #.$.%.      ",
"c &.*.=.-.;.>.,.'.).!.. c       ",
"  c c ~.{.].^./.(._.:.<.[.      ",
"            c c c }.|.1.2.      ",
"                                "};
