/* XPM */
static const char * mm3dlogo_32x32_xpm[] = {
"32 32 225 2",
"  	c None",
". 	c #0000FA",
"+ 	c #0000F9",
"@ 	c #000061",
"# 	c #8E0000",
"$ 	c #0000DE",
"% 	c #00005E",
"& 	c #8C0000",
"* 	c #9A0000",
"= 	c #A60000",
"- 	c #AE0000",
"; 	c #B30000",
"> 	c #B50000",
", 	c #B20000",
"' 	c #AC0000",
") 	c #A20000",
"! 	c #990000",
"~ 	c #0000D0",
"{ 	c #980000",
"] 	c #AB0000",
"^ 	c #B90000",
"/ 	c #C20000",
"( 	c #C80000",
"_ 	c #CD0000",
": 	c #CA0000",
"< 	c #C70000",
"[ 	c #C10000",
"} 	c #A50000",
"| 	c #910000",
"1 	c #0000BF",
"2 	c #890000",
"3 	c #C30000",
"4 	c #CE0000",
"5 	c #D40000",
"6 	c #D80000",
"7 	c #DC0000",
"8 	c #D90000",
"9 	c #D30000",
"0 	c #CC0000",
"a 	c #B10000",
"b 	c #960000",
"c 	c #0000A4",
"d 	c #680014",
"e 	c #9F0000",
"f 	c #B60000",
"g 	c #C50000",
"h 	c #D00000",
"i 	c #DF0000",
"j 	c #E40000",
"k 	c #E70000",
"l 	c #E60000",
"m 	c #C60000",
"n 	c #000091",
"o 	c #220043",
"p 	c #970000",
"q 	c #D10000",
"r 	c #E10000",
"s 	c #EB0000",
"t 	c #ED0000",
"u 	c #EE0000",
"v 	c #E20000",
"w 	c #DB0000",
"x 	c #B00000",
"y 	c #000083",
"z 	c #070058",
"A 	c #7A000B",
"B 	c #C00000",
"C 	c #EA0000",
"D 	c #F00000",
"E 	c #F30000",
"F 	c #F40000",
"G 	c #F10000",
"H 	c #BD0000",
"I 	c #000066",
"J 	c #350034",
"K 	c #9B0000",
"L 	c #B40000",
"M 	c #DE0000",
"N 	c #F70000",
"O 	c #F80000",
"P 	c #F50000",
"Q 	c #E80000",
"R 	c #E00000",
"S 	c #D70000",
"T 	c #AF0000",
"U 	c #0000EC",
"V 	c #600017",
"W 	c #A40000",
"X 	c #BC0000",
"Y 	c #E90000",
"Z 	c #EF0000",
"` 	c #F90000",
" .	c #FA0000",
"..	c #CF0000",
"+.	c #BA0000",
"@.	c #0000E2",
"#.	c #05005A",
"$.	c #830004",
"%.	c #AD0000",
"&.	c #DD0000",
"*.	c #EC0000",
"=.	c #F60000",
"-.	c #FB0000",
";.	c #F20000",
">.	c #BF0000",
",.	c #0000C4",
"'.	c #22003D",
").	c #920000",
"!.	c #D20000",
"~.	c #FC0000",
"{.	c #FD0000",
"].	c #0000B1",
"^.	c #1E0044",
"/.	c #C40000",
"(.	c #A70000",
"_.	c #1D0044",
":.	c #E50000",
"<.	c #000088",
"[.	c #8D0000",
"}.	c #E30000",
"|.	c #000073",
"1.	c #13004D",
"2.	c #850000",
"3.	c #D60000",
"4.	c #D50000",
"5.	c #0000F8",
"6.	c #000068",
"7.	c #01005D",
"8.	c #66000F",
"9.	c #9E0000",
"0.	c #DA0000",
"a.	c #0000E7",
"b.	c #39002C",
"c.	c #C90000",
"d.	c #B80000",
"e.	c #A00000",
"f.	c #7F0000",
"g.	c #0000D7",
"h.	c #11004D",
"i.	c #7E0001",
"j.	c #CB0000",
"k.	c #BB0000",
"l.	c #3D0026",
"m.	c #8A0000",
"n.	c #A30000",
"o.	c #7B0000",
"p.	c #0000AB",
"q.	c #0300A5",
"r.	c #5B002F",
"s.	c #900000",
"t.	c #000099",
"u.	c #0000BC",
"v.	c #0B00DD",
"w.	c #600020",
"x.	c #8B0000",
"y.	c #BE0000",
"z.	c #7D0000",
"A.	c #000086",
"B.	c #0000CF",
"C.	c #0600E6",
"D.	c #4F003C",
"E.	c #820000",
"F.	c #930000",
"G.	c #6C000E",
"H.	c #00006E",
"I.	c #0000ED",
"J.	c #0300F0",
"K.	c #29008A",
"L.	c #620018",
"M.	c #950000",
"N.	c #61002D",
"O.	c #2A0092",
"P.	c #0500CC",
"Q.	c #0000F1",
"R.	c #000064",
"S.	c #00005D",
"T.	c #00005F",
"U.	c #0000E0",
"V.	c #0000F5",
"W.	c #0100F6",
"X.	c #1E00A9",
"Y.	c #3A0068",
"Z.	c #50003E",
"`.	c #56003E",
" +	c #51003E",
".+	c #3C006A",
"++	c #1A00B7",
"@+	c #0100F8",
"#+	c #0000E3",
"$+	c #00005A",
"%+	c #000054",
"&+	c #00004D",
"*+	c #000047",
"=+	c #000041",
"-+	c #00003C",
";+	c #000039",
">+	c #000048",
",+	c #0000A0",
"'+	c #0000C1",
")+	c #0000E1",
"!+	c #0000F4",
"~+	c #0000F3",
"{+	c #0000DD",
"]+	c #000098",
"^+	c #000078",
"/+	c #000058",
"(+	c #00003F",
"_+	c #000046",
":+	c #000060",
"<+	c #00007F",
"[+	c #00009F",
"}+	c #0000C3",
"|+	c #0000E5",
"1+	c #0000D2",
"2+	c #0000B3",
"3+	c #000093",
"4+	c #00005C",
"5+	c #000082",
"6+	c #0000E9",
"7+	c #0000C8",
"8+	c #0000A8",
"9+	c #000069",
"0+	c #00003A",
"a+	c #00007D",
"b+	c #000089",
"                                                                ",
"        . + @                           #                       ",
"        . $ % %               & * = - ; > , ' ) !               ",
"        . ~ % % %           { ] ^ / ( _ _ : < [ > } |           ",
"        . 1 % % % %     2 ) > 3 4 5 6 7 7 7 8 9 0 [ a b         ",
"      . . c % % % % % d e f g h 6 i j k l l j i 8 9 m , {       ",
"      . . n % % % % o p , g q 8 r k s t u t s k v w q 3 x       ",
"      . . y % % % z A ' B h 8 v C t D E F E G u C v 8 4 H )     ",
"      . . I % % % J K L < 5 M l t G F N O N P E D Q R S < T |   ",
"      . U @ % % % V W X 0 6 v Y Z F N `  .` N P G s j 7 ..+.*   ",
"      . @.% % % #.$.%./ h &.l *.G =.`  .-.-.` =.;.t l &.q >.W   ",
"      . ,.% % % '.)., g !.i k t E O  .-.~.{.-.N E u Q &.q [ =   ",
"      . ].% % % ^.).a /.!.M l *.;.N ` -.~.{.-.O F D Y &.!.[ (.  ",
"      . c % % % _.| T 3 q 7 :.s G P N `  . .` =.;.u k &.!.[ (.  ",
"    . . <.% % % _.[.' [ ..8 }.C u ;.P N O N =.E Z C }.8 4 X W   ",
"    . . |.% % % 1.2.(.X 0 3.r Q *.Z E P P F E D *.l i 4.< L p   ",
"    . 5.6.% % % 7.8.9.> /.h w }.k s Z ;.G D Z t k r 0...>.] 2   ",
"    . a.% % % % % b.| %.X c.9 w r :.Q s s C Y l r w 5 < d.e.f.  ",
"    . g.% % % % % h.i.e , / j.9 0.M r }.j }.r M 8 !.c.k.] #     ",
"    . ,.% % % % % % l.m.n.> [ c.q 3.8 w 7 7 8 3.h < H %.b o.    ",
"    . p.% % % % % % q.r.s.n.a X /.: _ h q h _ c.3 k.- * o.      ",
"  . . t.% % % % % % u.v.w.x.9.' ; ^ y.[ [ B y.^ a (.b z.        ",
"  . . A.% % % % % % B.. C.D.E.F.9.= ' x T %.] n.* 2 G.          ",
"  . . H.% % % % % % I.. . J.K.L.f.[.).M.b M.[.E.N.O.P.          ",
"  . Q.R.% % % % S.T.U.V.. . . W.X.Y.Z.`.`. +.+++@+.             ",
"  . #+$+%+&+*+=+-+;+;+>+R.y ,+'+)+!+. . . . . . . .             ",
"  . ~+{+u.]+^+/+(+;+;+;+;+;+;+;+;+_+:+<+[+}+|+V.. +             ",
"  . . . . . . . U 1+2+3+|.&+;+;+;+;+;+;+;+;+;+>+4+5+            ",
"        . . . . . . . . . + 6+7+8+<.9+*+;+;+;+;+0+%+            ",
"                    . . . . . . . . . !+#+}+,+a+$+              ",
"                              . . . . . . . . . b+              ",
"                                          . . .                 "};
