/* XPM */
static const char * mviewport_xpm[] = {
"64 64 3 1",
" 	c None",
".	c #94D1D3",
"+	c #000000",
"................+................+................+.............",
"................+................+................+.............",
"................+................+................+.............",
"................+................+................+.............",
"................+................+................+.............",
"................+................+................+.............",
"................+................+................+.............",
"................+................+................+.............",
"................+................+................+.............",
"................+................+................+.............",
"................+................+................+.............",
"................+................+................+.............",
"................+................+................+.............",
"................+................+................+.............",
"................+................+................+.............",
"................+................+................+.............",
"+++++++++++++++++++++++++++++++++++++++++++++++++++++++++++++++.",
"................+................+................+.............",
"................+................+................+.............",
"................+................+................+.............",
"................+................+................+.............",
"................+................+................+.............",
"................+................+................+.............",
"................+................+................+.............",
"................+................+................+.............",
"................+................+................+.............",
"................+................+................+.............",
"................+................+................+.............",
"................+................+................+.............",
"................+................+................+.............",
"................+................+................+.............",
"................+................+................+.............",
"................+................+................+.............",
"+++++++++++++++++++++++++++++++++++++++++++++++++++++++++++++++.",
"................+................+................+.............",
"................+................+................+.............",
"................+................+................+.............",
"................+................+................+.............",
"................+................+................+.............",
"................+................+................+.............",
"................+................+................+.............",
"................+................+................+.............",
"................+................+................+.............",
"................+................+................+.............",
"................+................+................+.............",
"................+................+................+.............",
"................+................+................+.............",
"................+................+................+.............",
"................+................+................+.............",
"................+................+................+.............",
"+++++++++++++++++++++++++++++++++++++++++++++++++++++++++++++++.",
"................+................+................+.............",
"................+................+................+.............",
"................+................+................+.............",
"................+................+................+.............",
"................+................+................+.............",
"................+................+................+.............",
"................+................+................+.............",
"................+................+................+.............",
"................+................+................+.............",
"................+................+................+.............",
"................+................+................+.............",
"................+................+................+.............",
"................+................+................+............."};
