/* XPM */
static const char * nulltool_xpm[] = {
"22 22 8 1",
" 	c None",
".	c #FFFFFF",
"+	c #000000",
"@	c #CCCCCC",
"#	c #3EB6CD",
"$	c #3ECCCD",
"%	c #3ECDB4",
"&	c #3ECDA1",
"                 .++  ",
"              .++..+  ",
"           .++..++..  ",
"        .++..++..+    ",
"     .++..++..+       ",
"  .++..++..+          ",
"++..++..+             ",
"@++..+                ",
" .++@@++..++..++..++..",
" ++..++..++..++..++..+",
" +..++..++..++..++..++",
" +++++++++++++++++++++",
" + + + + + + + + + + +",
" +++++++++++++++++++++",
" +####+$$$$+%%%%+&&&&+",
" +####+$$$$+%%%%+&&&&+",
" +####+$$$$+%%%%+&&&&+",
" +####+$$$$+%%%%+&&&&+",
" +++++++++++++++++++++",
" + + + + + + + + + + +",
" +++++++++++++++++++++",
"                      "};
