/* XPM */
static const char * play_xpm[] = {
"19 16 2 1",
" 	c None",
".	c #000000",
"    .              ",
"    ...            ",
"    .....          ",
"    .......        ",
"    .........      ",
"    ...........    ",
"    .............  ",
"    ...............",
"    .............  ",
"    ...........    ",
"    .........      ",
"    .......        ",
"    .....          ",
"    ...            ",
"    .              ",
"                   "};
