/* XPM */
static char * pointtool_xpm[] = {
"22 22 5 1",
" 	c None",
".	c #FF0000",
"*	c #00FF00",
"+	c #0000FF",
"#	c #FFFFFF",
"                      ",
"                      ",
"                      ",
"                      ",
"                      ",
"          #           ",
"         #*#          ",
"        #*#*#         ",
"       #*###*#        ",
"      #*#####*#####   ",
"     #+++++++++++++#  ",
"      #.#####.#####   ",
"       #.###.#        ",
"        #.#.#         ",
"         #.#          ",
"          #           ",
"                      ",
"                      ",
"                      ",
"                      ",
"                      ",
"                      "};
