/* XPM */
static const char * projtool_xpm[] = {
"22 22 5 1",
" 	c None",
".	c #FF0000",
"+	c #15BBD8",
"@	c #319609",
"#	c #3BBF07",
"                      ",
"                      ",
"         ......       ",
"       ..++++++..     ",
"      .++++++++++.    ",
"      ...++++++...    ",
"      .++......++.    ",
"      .++++++++++.    ",
"      .++++++++++.    ",
"      .++++++++++.    ",
"      .++++++++++.    ",
"      .+++++@@+++.    ",
"      .+++@@##@++.    ",
"      .+@@#####@@.    ",
"      .@#########.    ",
"      .##########.    ",
"      .##########.    ",
"      .##########.    ",
"      .##########.    ",
"       ..######..     ",
"         ......       ",
"                      "};
