/* XPM */
static const char * selectpointtool_xpm[] = {
"22 22 6 1",
" 	c None",
".	c #FF0000",
"*	c #00FF00",
"+	c #0000FF",
"#	c #FFFFFF",
"X	c #000000",
"XX  XX  XX  X         ",
"X           X         ",
"X                     ",
"                      ",
"            X         ",
"X         # X         ",
"X        #*#          ",
"        #*#*#         ",
"       #*###X#        ",
"XX  XX#*XX##X*#####   ",
"     #+++++++++++++#  ",
"      #.#####.#####   ",
"       #.###.#        ",
"        #.#.#         ",
"         #.#          ",
"          #           ",
"                      ",
"                      ",
"                      ",
"                      ",
"                      ",
"                      "};

