/* XPM */
static char * selectconnectedtool_xpm[] = {
"22 22 4 1",
" 	c None",
".	c #000000",
"+	c #FF0000",
"@	c #FFFFFF",
"..  ..  ...           ",
".         .           ",
".                     ",
"                      ",
"    +++++ .+++++      ",
".   +++++ .+++++      ",
".   ++++++++++++      ",
"    +++++  +++++      ",
"    +++++ .+++++      ",
"..  ..+ ... +   @@@@@ ",
"    +++++  +    @@@@@ ",
"    +++++ +    @@@@@@ ",
"    ++++++    @ @@@@@ ",
"    +++++    @  @@@@@ ",
"    +++++   @     @   ",
"           @      @   ",
"         @@@@@  @@@@@ ",
"         @@@@@  @@@@@ ",
"         @@@@@@@@@@@@ ",
"         @@@@@  @@@@@ ",
"         @@@@@  @@@@@ ",
"                      "};
