/* XPM */
static char * selectprojtool_xpm[] = {
"22 22 6 1",
" 	c None",
".	c #000000",
"+	c #FF0000",
"@	c #15BBD8",
"#	c #319609",
"$	c #3BBF07",
"..  ..  ..  .         ",
".           .         ",
".           ++++++    ",
"          ++@@@@@@++  ",
"         +@@.@@@@@@@+ ",
".        +++.@@@@@+++ ",
".        +@@@+++++@@+ ",
"         +@@@@@@@@@@+ ",
"         +@@.@@@@@@@+ ",
"..  ..  ..@@.@@@@@@@+ ",
"         +@@@@@@@@@@+ ",
"         +@@@@@##@@@+ ",
"         +@@@##$$#@@+ ",
"         +@##$$$$$##+ ",
"         +#$$$$$$$$$+ ",
"         +$$$$$$$$$$+ ",
"         +$$$$$$$$$$+ ",
"         +$$$$$$$$$$+ ",
"         +$$$$$$$$$$+ ",
"          ++$$$$$$++  ",
"            ++++++    ",
"                      "};
