/* XPM */
static const char * sheartool_xpm[] = {
"22 22 4 1",
" 	c None",
".	c #000000",
"+	c #AFAFAF",
"@	c #FFFFFF",
"                      ",
"                      ",
" .........  ......... ",
" .+++++++.  .@@@@@@@. ",
" .+++++++.  .@@@@@@.  ",
" .+++++++. .@@@@@@@.  ",
" .+++++++. .@@@@@@@.  ",
" .+++++++. .@@@@@@@.  ",
" .+++++++. .@@@@@@.   ",
" .+++++++..@@@@@@@.   ",
" .+++++++..@@@@@@@.   ",
" .+++++++..@@@@@@@.   ",
" .+++++++.@@@@@@@.    ",
" .+++++++.@@@@@@@.    ",
" .+++++++.@@@@@@@.    ",
" .+++++++.@@@@@@@.    ",
" .++++++.@@@@@@@.     ",
" .++++++.@@@@@@@.     ",
" .++++++.@@@@@@@.     ",
" ................     ",
"                      ",
"                      "};
