/* XPM */
static char * texframe_xpm[] = {
"64 64 680 2",
"  	c None",
". 	c #000000",
"+ 	c #C9C9C9",
"@ 	c #FFFFFF",
"# 	c #D16B2B",
"$ 	c #C76D29",
"% 	c #C76D27",
"& 	c #C7602D",
"* 	c #812D0A",
"= 	c #54311A",
"- 	c #B2713B",
"; 	c #CB7533",
"> 	c #D07933",
", 	c #D07133",
"' 	c #CF7B2D",
") 	c #D47935",
"! 	c #DE8A3F",
"~ 	c #D67B2F",
"{ 	c #D07531",
"] 	c #CB7D37",
"^ 	c #DA7D35",
"/ 	c #D17D31",
"( 	c #D27735",
"_ 	c #C37B35",
": 	c #C57333",
"< 	c #CB6F33",
"[ 	c #D07131",
"} 	c #D87B3B",
"| 	c #DA8A3B",
"1 	c #DE843D",
"2 	c #DE9044",
"3 	c #E2853D",
"4 	c #DA8A37",
"5 	c #DA8535",
"6 	c #774520",
"7 	c #332018",
"8 	c #B3754D",
"9 	c #C97131",
"0 	c #C97133",
"a 	c #DE752D",
"b 	c #DE7331",
"c 	c #E2812F",
"d 	c #DA8337",
"e 	c #D17F35",
"f 	c #CA7135",
"g 	c #CB6D25",
"h 	c #C5662B",
"i 	c #DA792D",
"j 	c #DE7529",
"k 	c #D2712D",
"l 	c #CB7135",
"m 	c #C96027",
"n 	c #8E3B18",
"o 	c #5E3316",
"p 	c #C36F41",
"q 	c #D4752D",
"r 	c #D27531",
"s 	c #D27933",
"t 	c #D87735",
"u 	c #D4792F",
"v 	c #DE7B35",
"w 	c #D86F2F",
"x 	c #DC732F",
"y 	c #DC7731",
"z 	c #D4793B",
"A 	c #C57931",
"B 	c #C77B39",
"C 	c #D47B39",
"D 	c #D48135",
"E 	c #D67B33",
"F 	c #D88131",
"G 	c #D5813D",
"H 	c #DA8E46",
"I 	c #DA8341",
"J 	c #DA8E41",
"K 	c #B36835",
"L 	c #37200E",
"M 	c #9E754F",
"N 	c #C9772B",
"O 	c #C56F35",
"P 	c #D07735",
"Q 	c #D87F2F",
"R 	c #DE7D31",
"S 	c #DC7329",
"T 	c #DC7127",
"U 	c #DA853F",
"V 	c #D47533",
"W 	c #D87327",
"X 	c #DE7131",
"Y 	c #D66D25",
"Z 	c #D0732F",
"` 	c #DC6F26",
" .	c #CC712B",
"..	c #C87335",
"+.	c #D28A39",
"@.	c #DE7339",
"#.	c #DE6F25",
"$.	c #A65118",
"%.	c #603116",
"&.	c #C7773D",
"*.	c #D27335",
"=.	c #D67931",
"-.	c #DA8141",
";.	c #D48139",
">.	c #D67F35",
",.	c #D68531",
"'.	c #CE7D39",
").	c #D47131",
"!.	c #CA6F33",
"~.	c #D27129",
"{.	c #D4712B",
"].	c #D87D31",
"^.	c #D07B2F",
"/.	c #DE7729",
"(.	c #DA752B",
"_.	c #E27F2D",
":.	c #DE8C43",
"<.	c #E29456",
"[.	c #DA8A43",
"}.	c #CF7D39",
"|.	c #39220E",
"1.	c #6B5441",
"2.	c #D47743",
"3.	c #C7752F",
"4.	c #CC7131",
"5.	c #D8752B",
"6.	c #DA7B33",
"7.	c #E47929",
"8.	c #CA7D35",
"9.	c #CA7935",
"0.	c #D86B29",
"a.	c #DE7329",
"b.	c #D66F21",
"c.	c #C96629",
"d.	c #BF712B",
"e.	c #D47F37",
"f.	c #DC8333",
"g.	c #DA7125",
"h.	c #79350A",
"i.	c #68311E",
"j.	c #CB7F3D",
"k.	c #D6873F",
"l.	c #DA8946",
"m.	c #D87533",
"n.	c #DA8839",
"o.	c #DA853D",
"p.	c #DE8B3F",
"q.	c #CF833F",
"r.	c #DA8133",
"s.	c #DA813B",
"t.	c #D87527",
"u.	c #DA772F",
"v.	c #DE7D2D",
"w.	c #E28C4C",
"x.	c #DA7737",
"y.	c #663F1A",
"z.	c #4D3B2F",
"A.	c #C17D52",
"B.	c #D87935",
"C.	c #C97537",
"D.	c #D6772D",
"E.	c #D47D2D",
"F.	c #D66429",
"G.	c #DE7B2B",
"H.	c #D2772D",
"I.	c #CB7F35",
"J.	c #D37133",
"K.	c #E06D29",
"L.	c #DA7F35",
"M.	c #DC7129",
"N.	c #C96623",
"O.	c #C96B29",
"P.	c #CF7731",
"Q.	c #D87131",
"R.	c #DE6B29",
"S.	c #D0641E",
"T.	c #5C1E08",
"U.	c #794320",
"V.	c #D18A41",
"W.	c #DA8A48",
"X.	c #DA8A3F",
"Y.	c #D07F37",
"Z.	c #D57533",
"`.	c #DE7F37",
" +	c #DE7D39",
".+	c #D4893D",
"++	c #DE7733",
"@+	c #DE772B",
"#+	c #D46D2B",
"$+	c #D46F21",
"%+	c #DC6A29",
"&+	c #DE6A21",
"*+	c #D47127",
"=+	c #DE7D35",
"-+	c #664625",
";+	c #29241E",
">+	c #B9855C",
",+	c #DE884B",
"'+	c #D87931",
")+	c #D87333",
"!+	c #D87B2D",
"~+	c #D5712B",
"{+	c #DE732F",
"]+	c #CB772F",
"^+	c #D68131",
"/+	c #CD752D",
"(+	c #C56F2F",
"_+	c #CE6F2F",
":+	c #DA732B",
"<+	c #DA8335",
"[+	c #DA8539",
"}+	c #D66D27",
"|+	c #C77127",
"1+	c #E07531",
"2+	c #E27125",
"3+	c #C55A22",
"4+	c #35180A",
"5+	c #946239",
"6+	c #D89043",
"7+	c #DE813B",
"8+	c #CE7937",
"9+	c #DE7935",
"0+	c #E67337",
"a+	c #DE7537",
"b+	c #D26829",
"c+	c #CF6C2B",
"d+	c #D66221",
"e+	c #DC772B",
"f+	c #834B24",
"g+	c #1A120C",
"h+	c #8C6F56",
"i+	c #DC9252",
"j+	c #DC7F31",
"k+	c #D27737",
"l+	c #DE7F2D",
"m+	c #D8712B",
"n+	c #D66823",
"o+	c #DC7727",
"p+	c #C97F3D",
"q+	c #C96F33",
"r+	c #D47B31",
"s+	c #CE7733",
"t+	c #C76D2F",
"u+	c #E67F35",
"v+	c #D88739",
"w+	c #D0833D",
"x+	c #DC6F21",
"y+	c #D8772B",
"z+	c #D47331",
"A+	c #D47B2B",
"B+	c #DC752F",
"C+	c #E26D25",
"D+	c #E66F35",
"E+	c #372D27",
"F+	c #1E1208",
"G+	c #B0774E",
"H+	c #E07933",
"I+	c #D87127",
"J+	c #D87D33",
"K+	c #DC772F",
"L+	c #DE7221",
"M+	c #DA7933",
"N+	c #D87D39",
"O+	c #DE7125",
"P+	c #DA6225",
"Q+	c #DC6621",
"R+	c #DA6F29",
"S+	c #96562A",
"T+	c #180C0A",
"U+	c #645243",
"V+	c #DA9A5E",
"W+	c #E27F39",
"X+	c #DA7335",
"Y+	c #DA7731",
"Z+	c #D47B35",
"`+	c #DA772B",
" @	c #CB6A25",
".@	c #E27B33",
"+@	c #D08339",
"@@	c #C77333",
"#@	c #D47527",
"$@	c #DA732F",
"%@	c #DE873B",
"&@	c #D6833B",
"*@	c #D68333",
"=@	c #DA6221",
"-@	c #D66621",
";@	c #D8752F",
">@	c #DC6F29",
",@	c #9E5439",
"'@	c #49372D",
")@	c #1C1410",
"!@	c #543B2F",
"~@	c #CF8143",
"{@	c #E46F29",
"]@	c #E06925",
"^@	c #DA6F2B",
"/@	c #DC7333",
"(@	c #D26D27",
"_@	c #D06424",
":@	c #D86F29",
"<@	c #DA7937",
"[@	c #CE6827",
"}@	c #D66F2B",
"|@	c #D06D23",
"1@	c #B15A2F",
"2@	c #140C04",
"3@	c #3F3B37",
"4@	c #D08E62",
"5@	c #E2833F",
"6@	c #E2792F",
"7@	c #D67D35",
"8@	c #DA7123",
"9@	c #E27B31",
"0@	c #D68139",
"a@	c #D68135",
"b@	c #D06F33",
"c@	c #DC853D",
"d@	c #DE8C45",
"e@	c #D87B37",
"f@	c #D47735",
"g@	c #E27B35",
"h@	c #D06D29",
"i@	c #CE6221",
"j@	c #DA6825",
"k@	c #BF5C2F",
"l@	c #853D27",
"m@	c #985833",
"n@	c #C78146",
"o@	c #C17F5C",
"p@	c #4E3731",
"q@	c #68472D",
"r@	c #E06F2F",
"s@	c #D0712F",
"t@	c #CD6C2B",
"u@	c #C76B25",
"v@	c #D46D25",
"w@	c #CA7331",
"x@	c #CD6D29",
"y@	c #D4712A",
"z@	c #E2732F",
"A@	c #C16633",
"B@	c #1E1206",
"C@	c #2D2927",
"D@	c #AF7D62",
"E@	c #DE8746",
"F@	c #E0732B",
"G@	c #D8772F",
"H@	c #E27D39",
"I@	c #E46D29",
"J@	c #DE792B",
"K@	c #D47D3D",
"L@	c #D27F37",
"M@	c #DE792F",
"N@	c #D67131",
"O@	c #E67B3B",
"P@	c #E6853B",
"Q@	c #CE752F",
"R@	c #BD7135",
"S@	c #E07B23",
"T@	c #D46B21",
"U@	c #D26827",
"V@	c #C36223",
"W@	c #96432B",
"X@	c #793722",
"Y@	c #BF6B3B",
"Z@	c #DE8C4A",
"`@	c #DE8B43",
" #	c #DE9037",
".#	c #B36C35",
"+#	c #523522",
"@#	c #9E623F",
"##	c #D87927",
"$#	c #D0712D",
"%#	c #DC7325",
"&#	c #D46D27",
"*#	c #BB713D",
"=#	c #3D2A16",
"-#	c #372B23",
";#	c #B5775A",
">#	c #E2813B",
",#	c #E07729",
"'#	c #BF7535",
")#	c #CD752F",
"!#	c #D87723",
"~#	c #DC6F2D",
"{#	c #E27321",
"]#	c #DE712B",
"^#	c #D28133",
"/#	c #C97733",
"(#	c #DE8337",
"_#	c #DE8E4E",
":#	c #D8833B",
"<#	c #E07733",
"[#	c #BF7131",
"}#	c #CE6F31",
"|#	c #D47729",
"1#	c #DA6925",
"2#	c #CD581A",
"3#	c #A4491E",
"4#	c #683118",
"5#	c #94562F",
"6#	c #D8873F",
"7#	c #D68739",
"8#	c #D87531",
"9#	c #DE6B21",
"0#	c #D6712D",
"a#	c #D87B3D",
"b#	c #9E662F",
"c#	c #563B1E",
"d#	c #BD7539",
"e#	c #DA7329",
"f#	c #D2732B",
"g#	c #DA7B2F",
"h#	c #C57D3F",
"i#	c #3F2B14",
"j#	c #3D352D",
"k#	c #AE7149",
"l#	c #E4752F",
"m#	c #E46925",
"n#	c #D6732B",
"o#	c #D07127",
"p#	c #D26F2B",
"q#	c #E2752D",
"r#	c #DA7321",
"s#	c #E28133",
"t#	c #C57D39",
"u#	c #C57535",
"v#	c #E28135",
"w#	c #DA8541",
"x#	c #CF7937",
"y#	c #CB7531",
"z#	c #D6792B",
"A#	c #D47733",
"B#	c #D26823",
"C#	c #A44118",
"D#	c #7D3920",
"E#	c #C9793F",
"F#	c #DE8145",
"G#	c #DE8D48",
"H#	c #D87125",
"I#	c #D46225",
"J#	c #DA7327",
"K#	c #C77937",
"L#	c #643F26",
"M#	c #7B492F",
"N#	c #CB792F",
"O#	c #DA712D",
"P#	c #C57D48",
"Q#	c #493B29",
"R#	c #453129",
"S#	c #AA6F4F",
"T#	c #E06F2B",
"U#	c #E47525",
"V#	c #D27127",
"W#	c #C37D39",
"X#	c #D67937",
"Y#	c #D47D41",
"Z#	c #D07D39",
"`#	c #D87F35",
" $	c #C57F39",
".$	c #CC6F2F",
"+$	c #D67929",
"@$	c #DC7537",
"#$	c #E27729",
"$$	c #CB662D",
"%$	c #7F451E",
"&$	c #984E28",
"*$	c #D48747",
"=$	c #DE7F3B",
"-$	c #D37B33",
";$	c #E67925",
">$	c #A67F5E",
",$	c #47332B",
"'$	c #B96C3D",
")$	c #D8732F",
"!$	c #E07B2F",
"~$	c #CB8341",
"{$	c #6A4C2C",
"]$	c #433118",
"^$	c #B9713F",
"/$	c #CC7335",
"($	c #D26F2F",
"_$	c #DE6B2D",
":$	c #D48741",
"<$	c #DA8139",
"[$	c #D68C49",
"}$	c #CF7F3F",
"|$	c #DE8335",
"1$	c #D87F3D",
"2$	c #D67D2D",
"3$	c #D86D29",
"4$	c #D47B37",
"5$	c #D47D37",
"6$	c #D0792D",
"7$	c #DA712B",
"8$	c #522D22",
"9$	c #452F27",
"0$	c #C56F3B",
"a$	c #DA8741",
"b$	c #CE6D27",
"c$	c #E07B35",
"d$	c #D88139",
"e$	c #DE8137",
"f$	c #DA7D37",
"g$	c #D88146",
"h$	c #795854",
"i$	c #62492F",
"j$	c #DA7F33",
"k$	c #C97D3B",
"l$	c #624527",
"m$	c #4C351A",
"n$	c #CB6C41",
"o$	c #CB7B31",
"p$	c #E2732D",
"q$	c #D28349",
"r$	c #CC7337",
"s$	c #DC7931",
"t$	c #D67B35",
"u$	c #D4833D",
"v$	c #CD7931",
"w$	c #D4712F",
"x$	c #E07325",
"y$	c #E26C29",
"z$	c #5A3F3D",
"A$	c #41352F",
"B$	c #B57743",
"C$	c #DA8E4E",
"D$	c #DE6F2F",
"E$	c #D27326",
"F$	c #D6712B",
"G$	c #E07335",
"H$	c #DE7321",
"I$	c #DC6D25",
"J$	c #D86F21",
"K$	c #DA6C2D",
"L$	c #BF8B60",
"M$	c #433331",
"N$	c #87684B",
"O$	c #CB8352",
"P$	c #A86B37",
"Q$	c #503518",
"R$	c #603B2D",
"S$	c #CF713B",
"T$	c #CC7931",
"U$	c #D07731",
"V$	c #D07B39",
"W$	c #DE8339",
"X$	c #DE8A33",
"Y$	c #DA8439",
"Z$	c #D27D35",
"`$	c #D68845",
" %	c #DC7B37",
".%	c #DA752F",
"+%	c #D8833F",
"@%	c #E27F33",
"#%	c #D67F3D",
"$%	c #D68537",
"%%	c #D26F33",
"&%	c #DA8435",
"*%	c #D6853B",
"=%	c #DA893B",
"-%	c #DE7B2F",
";%	c #C7775A",
">%	c #9C6F54",
",%	c #4B3124",
"'%	c #D47122",
")%	c #DC6F31",
"!%	c #CD6D27",
"~%	c #DE712D",
"{%	c #DC712F",
"]%	c #DA7533",
"^%	c #D07D37",
"/%	c #7F6849",
"(%	c #584A43",
"_%	c #66524A",
":%	c #3F2914",
"<%	c #7D5229",
"[%	c #D17B39",
"}%	c #D47135",
"|%	c #D07B33",
"1%	c #D6834A",
"2%	c #D68A33",
"3%	c #DA8331",
"4%	c #D68133",
"5%	c #DE832F",
"6%	c #DE8C46",
"7%	c #D67531",
"8%	c #DA812D",
"9%	c #E27D31",
"0%	c #D06F2B",
"a%	c #DC8331",
"b%	c #DA6B21",
"c%	c #793F24",
"d%	c #9E5637",
"e%	c #C97129",
"f%	c #CD8743",
"g%	c #D6732D",
"h%	c #CD7133",
"i%	c #D46D23",
"j%	c #E0732F",
"k%	c #CE6F2D",
"l%	c #BD7752",
"m%	c #524139",
"n%	c #28241E",
"o%	c #96643B",
"p%	c #CE8C45",
"q%	c #D87B31",
"r%	c #CC7533",
"s%	c #D27B39",
"t%	c #D26F2D",
"u%	c #E07125",
"v%	c #D48537",
"w%	c #D69041",
"x%	c #D87D35",
"y%	c #E07929",
"z%	c #E07F31",
"A%	c #E46421",
"B%	c #DE772F",
"C%	c #DA772D",
"D%	c #C55E29",
"E%	c #662A1A",
"F%	c #BB6A2D",
"G%	c #D87F39",
"H%	c #DC7935",
"I%	c #DE7D27",
"J%	c #D86A21",
"K%	c #DE8B47",
"L%	c #DE9454",
"M%	c #CB6F3F",
"N%	c #966039",
"O%	c #6C5437",
"P%	c #BD7B50",
"Q%	c #DC8C43",
"R%	c #DA8641",
"S%	c #DA833F",
"T%	c #D17933",
"U%	c #DA8333",
"V%	c #DA8543",
"W%	c #DE8C39",
"X%	c #D87B33",
"Y%	c #D87529",
"Z%	c #D46F27",
"`%	c #DE7527",
" &	c #D8873D",
".&	c #CF772F",
"+&	c #D67F37",
"@&	c #D3752B",
"#&	c #E28A37",
"$&	c #E08535",
"%&	c #E47325",
"&&	c #C7641E",
"*&	c #CF7539",
"=&	c #D6772B",
"-&	c #924524",
";&	c #62352B",
">&	c #D47535",
",&	c #E27925",
"'&	c #D4752B",
")&	c #DE9056",
"!&	c #BF7D3F",
"~&	c #894C1E",
"{&	c #754B37",
"]&	c #D28345",
"^&	c #DE833D",
"/&	c #CC8339",
"(&	c #DA7F37",
"_&	c #CD7F35",
":&	c #DE8133",
"<&	c #D47937",
"[&	c #D27D2F",
"}&	c #D46F35",
"|&	c #E06B2D",
"1&	c #DA6B2F",
"2&	c #D86D25",
"3&	c #D67123",
"4&	c #DA7D2B",
"5&	c #E27B2B",
"6&	c #DC7F3B",
"7&	c #CC733D",
". . . . . . . . . . . . . . . . . . . . . . . . . . . . . . . . . . . . . . . . . . . . . . . . . . . . . . . . . . . . . . . . ",
". + + + + + + + + + + + + + + + + + + + + + + + + + + + + + + + + + + + + + + + + + + + + + + + + + + + + + + + + + + + + + + @ ",
". + + + + + + + + + + + + + + + + + + + + + + + + + + + + + + + + + + + + + + + + + + + + + + + + + + + + + + + + + + + + + + @ ",
". + + + + + + + + + + + + + + + + + + + + + + + + + + + + + + + + + + + + + + + + + + + + + + + + + + + + + + + + + + + + + + @ ",
". + + + + + + + + + + + + + + + + + + + + + + + + + + + + + + + + + + + + + + + + + + + + + + + + + + + + + + + + + + + + + + @ ",
". + + + + + + + + + + + + + + + + + + + + + + + + + + + + + + + + + + + + + + + + + + + + + + + + + + + + + + + + + + + + + + @ ",
". + + + + + + + + + + + + + + + + + + + + + + + + + + + + + + + + + + + + + + + + + + + + + + + + + + + + + + + + + + + + + + @ ",
". + + + + + + + + + + + + + + + + + + + + + + + + + + + + + + + + + + + + + + + + + + + + + + + + + + + + + + + + + + + + + + @ ",
". + + + + + + + + + + + + + + + + + + + + + + + + + + + + + + + + + + + + + + + + + + + + + + + + + + + + + + + + + + + + + + @ ",
". + + + + + + + + + + + + + + + + + + + + + + + + + + + + + + + + + + + + + + + + + + + + + + + + + + + + + + + + + + + + + + @ ",
". + + + + + + + + + + + + + + + + + + + + + + + + + + + + + + + + + + + + + + + + + + + + + + + + + + + + + + + + + + + + + + @ ",
". + + + + + + + + + + + + + + + + + + + + + + + + + + + + + + + + + + + + + + + + + + + + + + + + + + + + + + + + + + + + + + @ ",
". + + + + + + + + + + + + + + + + + + + + + + + + + + + + + + + + + + + + + + + + + + + + + + + + + + + + + + + + + + + + + + @ ",
". + + + + + + + + + + + + + + + + + + + + + + + + + + + + + + + + + + + + + + + + + + + + + + + + + + + + + + + + + + + + + + @ ",
". + + + + + + + + + + + + + + + + + + + + + + + + + + + + + + + + + + + + + + + + + + + + + + + + + + + + + + + + + + + + + + @ ",
". + + + + + + + + + + + + + + + + + + + + + + + + + + + + + + + + + + + + + + + + + + + + + + + + + + + + + + + + + + + + + + @ ",
". + + + + + + + + + + + + + + + + + + + + + + + + + + + + + + + + + + + + + + + + + + + + + + + + + + + + + + + + + + + + + + @ ",
". + + + + + + + + + + + + + + + + + + + + + + + + + + + + + + + + + + + + + + + + + + + + + + + + + + + + + + + + + + + + + + @ ",
". + + + + + + + + + + + + + + + + + + + + + + + + + + + + + + + + + + + + + + + + + + + + + + + + + + + + + + + + + + + + + + @ ",
". + + + + + + + + + + + + + + + + + + + + + + + + + + + + + + + + + + + + + + + + + + + + + + + + + + + + + + + + + + + + + + @ ",
". + + + + + + + + + + + + + + + + + + + + + + + + + + + + + + + + + + + + + + + + + + + + + + + + + + + + + + + + + + + + + + @ ",
". + + + + + + + + + + + + + + + + + + + + + + + + + + + + + + + + + + + + + + + + + + + + + + + + + + + + + + + + + + + + + + @ ",
". + + + + + + + + + + + + + + + + + + + + + + + + + + + + + + + + + + + + + + + + + + + + + + + + + + + + + + + + + + + + + + @ ",
". + + + + + + + + # $ % & * = - ; > > , ' ) ! ~ { ] ^ / ( _ : < [ } | 1 2 3 4 5 6 7 8 9 0 a b [ c d e f g h i + + + + + + + + @ ",
". + + + + + + + + j k ; l m n o p q r s t s u v w x j y z A B C D E F G H I J K L M N O P Q R S T U V W X Y Z + + + + + + + + @ ",
". + + + + + + + + `  ...+.@.#.$.%.&.*.=.-.;.>.,.'.).!.~.{.].;.^./.(._.:.<.[.}.|.1.2.3.4.^ 5.6.7.S 8.9., 0.a.(.+ + + + + + + + @ ",
". + + + + + + + + b.c.d.e.f.g.T h.i.j.) k.l.r m.n.o.p.q.r.s.t.j 5.u.v.y w.x.y.z.A.B.C.D.E.F.G.H.v I.4.J.K.L., + + + + + + + + @ ",
". + + + + + + + + M.N.O.P.Q.{.R.S.T.U.V.W.X.Y.Z.q `. +.+++@+#+$+%+&+u.*+=+-+;+>+,+'+)+!+~+T {+]+^+/+(+_+:+<+[++ + + + + + + + @ ",
". + + + + + + + + #.}+|+q H.r 1+2+3+4+5+6+7+8+u P a i b 9+0+a+w b+c+d+e+f+g+h+i+j+k+l+m+n+o+p+q+r+s+t+t u+v+w++ + + + + + + + @ ",
". + + + + + + + + &+x+y+z+A+r B+C+D+E+F+G+H+I+j J+K+L+5.M+N+a O+P+Q+R+S+T+U+V+W+X+Y+Z+`+ @.@+@@@[ #@$@%@e+&@*@+ + + + + + + + @ ",
". + + + + + + + + M.=@-@t.H.;@/.>@,@'@)@!@~@{@]@^@/@(@_@:@<@[@}@|@Q+1@2@3@4@5@6@7@5 v.8@9@0@a@b@b@:+c@d@e@f@i + + + + + + + + @ ",
". + + + + + + + + g@h@i@j@I+M.k@l@m@n@o@p@q@).r@s@t@u@v@w@x@~.y@z@A@B@C@D@E@F@G@e@H@G.I@J@K@L@)+M@N@O@P@Q@, R@+ + + + + + + + @ ",
". + + + + + + + + S@Y T@U@V@W@X@Y@Z@`@ #.#+#@#O m+##v@c.$#%#&#/.*#=#-#;#>#,#r '#)#!#~#{#]#^#/#(#_#:#<#[#}#w@|#+ + + + + + + + @ ",
". + + + + + + + + g.1#2#3#4#5#6#7#8#9#0#a#b#c#d#..z+e#f#%#'+g#h#i#j#k#l#m#n#w@o#p#*.q#r#s#t#u#v#w#'+x#y#z#i A#+ + + + + + + + @ ",
". + + + + + + + + 5.B#C#D#E#F#G##.H#I#v@J#K#L#M#N#V /.O#)+e@P#Q#R#S#f T#U#V#W#X#Y#Z#Y+J+`# $.$+$u r Q@%@@$#$}++ + + + + + + + @ ",
". + + + + + + + + $$%$&$*$=$-$s.$@}+R+#+;$u >$,$'$Q@)$!$t ~${$]$^$/$($_${#8+:$<$[$}$A#|$1$2$3$4$5$6$M+[.`#7$a.+ + + + + + + + @ ",
". + + + + + + + + 8$9$0$`@a$b$u.c$d$%+e$f$*+g$h$i$C.j$) k$l$m$n$o$.$, p$|$X#q$7+.+r$s$%@J+t$;@u$r y+Z+v$w$x$y$+ + + + + + + + @ ",
". + + + + + + + + z$A$B$C$ +D$E$F$G$H$I$Y J$K$L$M$N$O$P$Q$R$S$T$U$V$W$X$Y$Z$`$ %H@C .%+%g#@%| #%$%%%&%*%=%#%-%+ + + + + + + + @ ",
". + + + + + + + + ;%>%,%X.'%)%u.##!%p#~%#.{%]%^%/%(%_%:%<%[%k+}%|%v 1%2%3%4%Y.5$Y+r$:@5%d d 6%+@7%8%u 9%0%I+a%+ + + + + + + + @ ",
". + + + + + + + + I@b%c%d%e%f%$@g%r S h%i%7$j%k%l%m%n%o%p%) A#q%*.r%;.) r+&@t s%r t%u%S J+v%w%x%y%R z%A%N@s B%+ + + + + + + + @ ",
". + + + + + + + + C%b D%E%F%G%H%F$I%B%J%$#K%L%M%N%O%P%Q%[.R%S%r+T%r B.U%V%W%X.X%Y%Z%`%$+ &.&+&@&u.#&$&%&&&~.*&+ + + + + + + + @ ",
". + + + + + + + + z+=&e#-&;&>&,&F$;@'&B.l+)&!&~&{&]&v ^&[.[./&*.> (&| _&:&<&[&}&|&1&2&3&f@4&%#Z%5&s#<@6&&@^&7&+ + + + + + + + @ ",
". + + + + + + + + + + + + + + + + + + + + + + + + + + + + + + + + + + + + + + + + + + + + + + + + + + + + + + + + + + + + + + @ ",
". + + + + + + + + + + + + + + + + + + + + + + + + + + + + + + + + + + + + + + + + + + + + + + + + + + + + + + + + + + + + + + @ ",
". + + + + + + + + + + + + + + + + + + + + + + + + + + + + + + + + + + + + + + + + + + + + + + + + + + + + + + + + + + + + + + @ ",
". + + + + + + + + + + + + + + + + + + + + + + + + + + + + + + + + + + + + + + + + + + + + + + + + + + + + + + + + + + + + + + @ ",
". + + + + + + + + + + + + + + + + + + + + + + + + + + + + + + + + + + + + + + + + + + + + + + + + + + + + + + + + + + + + + + @ ",
". + + + + + + + + + + + + + + + + + + + + + + + + + + + + + + + + + + + + + + + + + + + + + + + + + + + + + + + + + + + + + + @ ",
". + + + + + + + + + + + + + + + + + + + + + + + + + + + + + + + + + + + + + + + + + + + + + + + + + + + + + + + + + + + + + + @ ",
". + + + + + + + + + + + + + + + + + + + + + + + + + + + + + + + + + + + + + + + + + + + + + + + + + + + + + + + + + + + + + + @ ",
". + + + + + + + + + + + + + + + + + + + + + + + + + + + + + + + + + + + + + + + + + + + + + + + + + + + + + + + + + + + + + + @ ",
". + + + + + + + + + + + + + + + + + + + + + + + + + + + + + + + + + + + + + + + + + + + + + + + + + + + + + + + + + + + + + + @ ",
". + + + + + + + + + + + + + + + + + + + + + + + + + + + + + + + + + + + + + + + + + + + + + + + + + + + + + + + + + + + + + + @ ",
". + + + + + + + + + + + + + + + + + + + + + + + + + + + + + + + + + + + + + + + + + + + + + + + + + + + + + + + + + + + + + + @ ",
". + + + + + + + + + + + + + + + + + + + + + + + + + + + + + + + + + + + + + + + + + + + + + + + + + + + + + + + + + + + + + + @ ",
". + + + + + + + + + + + + + + + + + + + + + + + + + + + + + + + + + + + + + + + + + + + + + + + + + + + + + + + + + + + + + + @ ",
". + + + + + + + + + + + + + + + + + + + + + + + + + + + + + + + + + + + + + + + + + + + + + + + + + + + + + + + + + + + + + + @ ",
". + + + + + + + + + + + + + + + + + + + + + + + + + + + + + + + + + + + + + + + + + + + + + + + + + + + + + + + + + + + + + + @ ",
". + + + + + + + + + + + + + + + + + + + + + + + + + + + + + + + + + + + + + + + + + + + + + + + + + + + + + + + + + + + + + + @ ",
". + + + + + + + + + + + + + + + + + + + + + + + + + + + + + + + + + + + + + + + + + + + + + + + + + + + + + + + + + + + + + + @ ",
". + + + + + + + + + + + + + + + + + + + + + + + + + + + + + + + + + + + + + + + + + + + + + + + + + + + + + + + + + + + + + + @ ",
". + + + + + + + + + + + + + + + + + + + + + + + + + + + + + + + + + + + + + + + + + + + + + + + + + + + + + + + + + + + + + + @ ",
". + + + + + + + + + + + + + + + + + + + + + + + + + + + + + + + + + + + + + + + + + + + + + + + + + + + + + + + + + + + + + + @ ",
"@ @ @ @ @ @ @ @ @ @ @ @ @ @ @ @ @ @ @ @ @ @ @ @ @ @ @ @ @ @ @ @ @ @ @ @ @ @ @ @ @ @ @ @ @ @ @ @ @ @ @ @ @ @ @ @ @ @ @ @ @ @ @ @ "};
