/* XPM */
static const char * zoomout_xpm[] = {
"22 22 3 1",
" 	c None",
".	c #000000",
"+	c #C1C1C1",
"                      ",
"      ....            ",
"    ........          ",
"   ...    ...         ",
"   ..      ..         ",
"  ..        ..        ",
"  .. ...... ..        ",
"  .. ...... ..        ",
"  ..        ..        ",
"   ..      ..         ",
"   ...    ..+..       ",
"    .......+++..      ",
"      .... .+++..     ",
"           ..+++..    ",
"            ..+++..   ",
"             ..+++..  ",
"              ..+++.. ",
"               ..+++. ",
"                ..+.. ",
"                 ...  ",
"                      ",
"                      "};
