/* XPM */
static char * mm3d_16_xpm[] = {
"16 16 126 2",
"  	c None",
". 	c #0000FA",
"+ 	c #0000E8",
"@ 	c #00005E",
"# 	c #9A0000",
"$ 	c #AF0000",
"% 	c #BE0000",
"& 	c #C00000",
"* 	c #B60000",
"= 	c #A60000",
"- 	c #0000D6",
"; 	c #340039",
"> 	c #A00000",
", 	c #C30000",
"' 	c #D60000",
") 	c #E00000",
"! 	c #E10000",
"~ 	c #DC0000",
"{ 	c #CE0000",
"] 	c #B00000",
"^ 	c #0000C2",
"/ 	c #02005C",
"( 	c #780014",
"_ 	c #C20000",
": 	c #D90000",
"< 	c #E80000",
"[ 	c #EF0000",
"} 	c #F00000",
"| 	c #EC0000",
"1 	c #E20000",
"2 	c #CF0000",
"3 	c #0000AB",
"4 	c #250042",
"5 	c #AC0000",
"6 	c #D00000",
"7 	c #E40000",
"8 	c #F70000",
"9 	c #F80000",
"0 	c #F50000",
"a 	c #ED0000",
"b 	c #DE0000",
"c 	c #960000",
"d 	c #000098",
"e 	c #4F0027",
"f 	c #BA0000",
"g 	c #D80000",
"h 	c #EA0000",
"i 	c #F40000",
"j 	c #FA0000",
"k 	c #FC0000",
"l 	c #C80000",
"m 	c #A50000",
"n 	c #000084",
"o 	c #580022",
"p 	c #D70000",
"q 	c #F90000",
"r 	c #FB0000",
"s 	c #F10000",
"t 	c #CA0000",
"u 	c #A70000",
"v 	c #00006E",
"w 	c #500024",
"x 	c #B40000",
"y 	c #D20000",
"z 	c #E60000",
"A 	c #F60000",
"B 	c #F30000",
"C 	c #EB0000",
"D 	c #C10000",
"E 	c #9E0000",
"F 	c #0000F5",
"G 	c #000060",
"H 	c #28003E",
"I 	c #A40000",
"J 	c #C60000",
"K 	c #DB0000",
"L 	c #EE0000",
"M 	c #D10000",
"N 	c #840000",
"O 	c #0000E4",
"P 	c #04005A",
"Q 	c #79000A",
"R 	c #B30000",
"S 	c #BC0000",
"T 	c #920000",
"U 	c #0000CE",
"V 	c #1A009B",
"W 	c #880008",
"X 	c #AE0000",
"Y 	c #C70000",
"Z 	c #970000",
"` 	c #0000BA",
" .	c #0000EC",
"..	c #1600C3",
"+.	c #680028",
"@.	c #940000",
"#.	c #A10000",
"$.	c #A20000",
"%.	c #6C0030",
"&.	c #38006D",
"*.	c #0000A4",
"=.	c #000057",
"-.	c #000051",
";.	c #00004C",
">.	c #000096",
",.	c #0000B7",
"'.	c #0000D4",
").	c #1600BA",
"!.	c #2A009C",
"~.	c #1600C5",
"{.	c #0000F1",
"].	c #0000D2",
"^.	c #0000B1",
"/.	c #00008E",
"(.	c #000039",
"_.	c #00003C",
":.	c #000054",
"<.	c #000075",
"[.	c #000097",
"}.	c #0000B4",
"|.	c #0000E9",
"1.	c #0000C9",
"2.	c #0000A8",
"3.	c #000086",
"4.	c #000064",
"5.	c #00004D",
"    .                           ",
"    + @       # $ % & * =       ",
"    - @ @ ; > , ' ) ! ~ { ]     ",
"  . ^ @ / ( _ : < [ } | 1 2 ]   ",
"  . 3 @ 4 5 6 7 } 8 9 0 a b & c ",
"  . d @ e f g h i j k 9 } 1 l m ",
"  . n @ o f p < i q r 9 s 1 t u ",
"  . v @ w x y z [ 0 A B C ~ D E ",
"  F G @ H I J K z a L C ! M ] N ",
"  O @ @ P Q R t g b ) ~ 6 S T   ",
"  U @ @ @ V W X % Y l , * Z     ",
". ` @ @ @  ...+.@.#.$.Z %.&.    ",
". *.=.-.;.>.,.'.).!.!.~..       ",
". {.].^./.v ;.(._.:.<.[.}.      ",
"    . . . . . |.1.2.3.4.5.      ",
"                . . . .         "};
